<mxfile host="app.diagrams.net" modified="2024-03-08T01:09:08.756Z" agent="Mozilla/5.0 (Macintosh; Intel Mac OS X 10_15_7) AppleWebKit/537.36 (KHTML, like Gecko) Chrome/122.0.0.0 Safari/537.36 Edg/122.0.0.0" etag="LBE13xZ221r1R319jdjK" version="23.1.8" type="device">
  <diagram name="Page-1" id="NW5-xHElYE2Hm5yu41M4">
    <mxGraphModel dx="2131" dy="1994" grid="1" gridSize="10" guides="1" tooltips="1" connect="1" arrows="1" fold="1" page="1" pageScale="1" pageWidth="827" pageHeight="1169" math="0" shadow="0">
      <root>
        <mxCell id="0" />
        <mxCell id="1" parent="0" />
        <mxCell id="kh96VS2ofaY7KQx8Iza0-1" value="" style="edgeStyle=orthogonalEdgeStyle;rounded=0;orthogonalLoop=1;jettySize=auto;html=1;" parent="1" source="kh96VS2ofaY7KQx8Iza0-2" target="kh96VS2ofaY7KQx8Iza0-4" edge="1">
          <mxGeometry relative="1" as="geometry" />
        </mxCell>
        <mxCell id="kh96VS2ofaY7KQx8Iza0-2" value="original dataset" style="text;html=1;strokeColor=none;fillColor=none;align=center;verticalAlign=middle;whiteSpace=wrap;rounded=0;fontSize=20;" parent="1" vertex="1">
          <mxGeometry x="-180" y="-755" width="140" height="30" as="geometry" />
        </mxCell>
        <mxCell id="kh96VS2ofaY7KQx8Iza0-3" value="" style="edgeStyle=orthogonalEdgeStyle;rounded=0;orthogonalLoop=1;jettySize=auto;html=1;" parent="1" source="kh96VS2ofaY7KQx8Iza0-4" target="kh96VS2ofaY7KQx8Iza0-27" edge="1">
          <mxGeometry relative="1" as="geometry" />
        </mxCell>
        <mxCell id="kh96VS2ofaY7KQx8Iza0-4" value="bootstrapped data (N = B)" style="text;html=1;strokeColor=none;fillColor=none;align=center;verticalAlign=middle;whiteSpace=wrap;rounded=0;fontSize=20;" parent="1" vertex="1">
          <mxGeometry x="87.5" y="-755" width="170" height="30" as="geometry" />
        </mxCell>
        <mxCell id="kh96VS2ofaY7KQx8Iza0-5" value="&lt;font style=&quot;font-size: 18px;&quot;&gt;n*p&lt;br&gt;(p main effects)&lt;/font&gt;" style="rounded=0;whiteSpace=wrap;html=1;" parent="1" vertex="1">
          <mxGeometry x="-242" y="-689" width="260" height="290" as="geometry" />
        </mxCell>
        <mxCell id="kh96VS2ofaY7KQx8Iza0-6" value="" style="shape=table;startSize=0;container=1;collapsible=0;childLayout=tableLayout;" parent="1" vertex="1">
          <mxGeometry x="625.57" y="-704" width="216" height="230" as="geometry" />
        </mxCell>
        <mxCell id="kh96VS2ofaY7KQx8Iza0-7" value="" style="shape=tableRow;horizontal=0;startSize=0;swimlaneHead=0;swimlaneBody=0;strokeColor=inherit;top=0;left=0;bottom=0;right=0;collapsible=0;dropTarget=0;fillColor=none;points=[[0,0.5],[1,0.5]];portConstraint=eastwest;" parent="kh96VS2ofaY7KQx8Iza0-6" vertex="1">
          <mxGeometry width="216" height="46" as="geometry" />
        </mxCell>
        <mxCell id="kh96VS2ofaY7KQx8Iza0-8" value="" style="shape=partialRectangle;html=1;whiteSpace=wrap;connectable=0;strokeColor=inherit;overflow=hidden;fillColor=none;top=0;left=0;bottom=0;right=0;pointerEvents=1;" parent="kh96VS2ofaY7KQx8Iza0-7" vertex="1">
          <mxGeometry width="216" height="46" as="geometry">
            <mxRectangle width="216" height="46" as="alternateBounds" />
          </mxGeometry>
        </mxCell>
        <mxCell id="kh96VS2ofaY7KQx8Iza0-9" value="" style="shape=tableRow;horizontal=0;startSize=0;swimlaneHead=0;swimlaneBody=0;strokeColor=inherit;top=0;left=0;bottom=0;right=0;collapsible=0;dropTarget=0;fillColor=none;points=[[0,0.5],[1,0.5]];portConstraint=eastwest;" parent="kh96VS2ofaY7KQx8Iza0-6" vertex="1">
          <mxGeometry y="46" width="216" height="46" as="geometry" />
        </mxCell>
        <mxCell id="kh96VS2ofaY7KQx8Iza0-10" value="" style="shape=partialRectangle;html=1;whiteSpace=wrap;connectable=0;strokeColor=inherit;overflow=hidden;fillColor=none;top=0;left=0;bottom=0;right=0;pointerEvents=1;" parent="kh96VS2ofaY7KQx8Iza0-9" vertex="1">
          <mxGeometry width="216" height="46" as="geometry">
            <mxRectangle width="216" height="46" as="alternateBounds" />
          </mxGeometry>
        </mxCell>
        <mxCell id="kh96VS2ofaY7KQx8Iza0-11" value="" style="shape=tableRow;horizontal=0;startSize=0;swimlaneHead=0;swimlaneBody=0;strokeColor=inherit;top=0;left=0;bottom=0;right=0;collapsible=0;dropTarget=0;fillColor=none;points=[[0,0.5],[1,0.5]];portConstraint=eastwest;" parent="kh96VS2ofaY7KQx8Iza0-6" vertex="1">
          <mxGeometry y="92" width="216" height="46" as="geometry" />
        </mxCell>
        <mxCell id="kh96VS2ofaY7KQx8Iza0-12" value="" style="shape=partialRectangle;html=1;whiteSpace=wrap;connectable=0;strokeColor=inherit;overflow=hidden;fillColor=none;top=0;left=0;bottom=0;right=0;pointerEvents=1;" parent="kh96VS2ofaY7KQx8Iza0-11" vertex="1">
          <mxGeometry width="216" height="46" as="geometry">
            <mxRectangle width="216" height="46" as="alternateBounds" />
          </mxGeometry>
        </mxCell>
        <mxCell id="kh96VS2ofaY7KQx8Iza0-13" value="" style="shape=tableRow;horizontal=0;startSize=0;swimlaneHead=0;swimlaneBody=0;strokeColor=inherit;top=0;left=0;bottom=0;right=0;collapsible=0;dropTarget=0;fillColor=none;points=[[0,0.5],[1,0.5]];portConstraint=eastwest;" parent="kh96VS2ofaY7KQx8Iza0-6" vertex="1">
          <mxGeometry y="138" width="216" height="46" as="geometry" />
        </mxCell>
        <mxCell id="kh96VS2ofaY7KQx8Iza0-14" value="" style="shape=partialRectangle;html=1;whiteSpace=wrap;connectable=0;strokeColor=inherit;overflow=hidden;fillColor=none;top=0;left=0;bottom=0;right=0;pointerEvents=1;" parent="kh96VS2ofaY7KQx8Iza0-13" vertex="1">
          <mxGeometry width="216" height="46" as="geometry">
            <mxRectangle width="216" height="46" as="alternateBounds" />
          </mxGeometry>
        </mxCell>
        <mxCell id="kh96VS2ofaY7KQx8Iza0-15" value="" style="shape=tableRow;horizontal=0;startSize=0;swimlaneHead=0;swimlaneBody=0;strokeColor=inherit;top=0;left=0;bottom=0;right=0;collapsible=0;dropTarget=0;fillColor=none;points=[[0,0.5],[1,0.5]];portConstraint=eastwest;" parent="kh96VS2ofaY7KQx8Iza0-6" vertex="1">
          <mxGeometry y="184" width="216" height="46" as="geometry" />
        </mxCell>
        <mxCell id="kh96VS2ofaY7KQx8Iza0-16" value="" style="shape=partialRectangle;html=1;whiteSpace=wrap;connectable=0;strokeColor=inherit;overflow=hidden;fillColor=none;top=0;left=0;bottom=0;right=0;pointerEvents=1;" parent="kh96VS2ofaY7KQx8Iza0-15" vertex="1">
          <mxGeometry width="216" height="46" as="geometry">
            <mxRectangle width="216" height="46" as="alternateBounds" />
          </mxGeometry>
        </mxCell>
        <mxCell id="kh96VS2ofaY7KQx8Iza0-17" value="" style="group" parent="1" vertex="1" connectable="0">
          <mxGeometry x="350.5" y="-705" width="254.5" height="324" as="geometry" />
        </mxCell>
        <mxCell id="kh96VS2ofaY7KQx8Iza0-18" value="80% as train" style="shape=internalStorage;whiteSpace=wrap;html=1;backgroundOutline=1;dx=0;dy=228;" parent="kh96VS2ofaY7KQx8Iza0-17" vertex="1">
          <mxGeometry width="215" height="290" as="geometry" />
        </mxCell>
        <mxCell id="kh96VS2ofaY7KQx8Iza0-19" value="20% as test" style="text;html=1;strokeColor=none;fillColor=none;align=center;verticalAlign=middle;whiteSpace=wrap;rounded=0;" parent="kh96VS2ofaY7KQx8Iza0-17" vertex="1">
          <mxGeometry x="70" y="250" width="75" height="30" as="geometry" />
        </mxCell>
        <mxCell id="kh96VS2ofaY7KQx8Iza0-20" value="" style="group" parent="kh96VS2ofaY7KQx8Iza0-17" vertex="1" connectable="0">
          <mxGeometry x="9.5" y="10" width="235" height="314" as="geometry" />
        </mxCell>
        <mxCell id="kh96VS2ofaY7KQx8Iza0-21" value="80% as train" style="shape=internalStorage;whiteSpace=wrap;html=1;backgroundOutline=1;dx=0;dy=228;" parent="kh96VS2ofaY7KQx8Iza0-20" vertex="1">
          <mxGeometry x="6" y="7" width="215" height="290" as="geometry" />
        </mxCell>
        <mxCell id="kh96VS2ofaY7KQx8Iza0-22" value="20% as test" style="text;html=1;strokeColor=none;fillColor=none;align=center;verticalAlign=middle;whiteSpace=wrap;rounded=0;" parent="kh96VS2ofaY7KQx8Iza0-20" vertex="1">
          <mxGeometry x="70" y="250" width="75" height="30" as="geometry" />
        </mxCell>
        <mxCell id="kh96VS2ofaY7KQx8Iza0-23" value="" style="group" parent="kh96VS2ofaY7KQx8Iza0-20" vertex="1" connectable="0">
          <mxGeometry x="20" y="24" width="215" height="290" as="geometry" />
        </mxCell>
        <mxCell id="kh96VS2ofaY7KQx8Iza0-24" value="&lt;font style=&quot;font-size: 19px;&quot;&gt;1000 as train&lt;/font&gt;" style="shape=internalStorage;whiteSpace=wrap;html=1;backgroundOutline=1;dx=0;dy=228;" parent="kh96VS2ofaY7KQx8Iza0-23" vertex="1">
          <mxGeometry width="215" height="290" as="geometry" />
        </mxCell>
        <mxCell id="kh96VS2ofaY7KQx8Iza0-25" value="500 as test" style="text;html=1;strokeColor=none;fillColor=none;align=center;verticalAlign=middle;whiteSpace=wrap;rounded=0;fontSize=18;" parent="kh96VS2ofaY7KQx8Iza0-23" vertex="1">
          <mxGeometry x="57.5" y="250" width="100" height="30" as="geometry" />
        </mxCell>
        <mxCell id="kh96VS2ofaY7KQx8Iza0-26" value="" style="edgeStyle=orthogonalEdgeStyle;rounded=0;orthogonalLoop=1;jettySize=auto;html=1;" parent="1" source="kh96VS2ofaY7KQx8Iza0-27" target="kh96VS2ofaY7KQx8Iza0-29" edge="1">
          <mxGeometry relative="1" as="geometry" />
        </mxCell>
        <mxCell id="kh96VS2ofaY7KQx8Iza0-27" value="divide into train and test set" style="text;html=1;strokeColor=none;fillColor=none;align=center;verticalAlign=middle;whiteSpace=wrap;rounded=0;fontSize=20;" parent="1" vertex="1">
          <mxGeometry x="380" y="-755" width="170" height="30" as="geometry" />
        </mxCell>
        <mxCell id="kh96VS2ofaY7KQx8Iza0-28" value="n*q&lt;br&gt;(q: bootstrapped features and&amp;nbsp;&lt;br&gt;interactive effects)" style="rounded=0;whiteSpace=wrap;html=1;" parent="1" vertex="1">
          <mxGeometry x="65" y="-704" width="215" height="290" as="geometry" />
        </mxCell>
        <mxCell id="kh96VS2ofaY7KQx8Iza0-29" value="5 fold cross-validation" style="text;html=1;strokeColor=none;fillColor=none;align=center;verticalAlign=middle;whiteSpace=wrap;rounded=0;fontSize=20;" parent="1" vertex="1">
          <mxGeometry x="650" y="-755" width="200" height="30" as="geometry" />
        </mxCell>
        <mxCell id="kh96VS2ofaY7KQx8Iza0-30" value="" style="ellipse;whiteSpace=wrap;html=1;align=center;aspect=fixed;fillColor=none;strokeColor=none;resizable=0;perimeter=centerPerimeter;rotatable=0;allowArrows=0;points=[];outlineConnect=1;" parent="1" vertex="1">
          <mxGeometry x="-120" y="-355" width="10" height="10" as="geometry" />
        </mxCell>
        <mxCell id="kh96VS2ofaY7KQx8Iza0-31" value="" style="group" parent="1" vertex="1" connectable="0">
          <mxGeometry x="820" y="-257" width="30" height="240" as="geometry" />
        </mxCell>
        <mxCell id="kh96VS2ofaY7KQx8Iza0-32" value="" style="group" parent="kh96VS2ofaY7KQx8Iza0-31" vertex="1" connectable="0">
          <mxGeometry width="30" height="240" as="geometry" />
        </mxCell>
        <mxCell id="kh96VS2ofaY7KQx8Iza0-33" value="" style="endArrow=classic;html=1;rounded=0;" parent="kh96VS2ofaY7KQx8Iza0-32" edge="1">
          <mxGeometry width="50" height="50" relative="1" as="geometry">
            <mxPoint y="122.60869565217392" as="sourcePoint" />
            <mxPoint x="30" y="123" as="targetPoint" />
          </mxGeometry>
        </mxCell>
        <mxCell id="kh96VS2ofaY7KQx8Iza0-34" value="" style="endArrow=none;html=1;rounded=0;" parent="kh96VS2ofaY7KQx8Iza0-32" edge="1">
          <mxGeometry width="50" height="50" relative="1" as="geometry">
            <mxPoint x="-10" as="sourcePoint" />
            <mxPoint x="-10" y="240" as="targetPoint" />
            <Array as="points">
              <mxPoint />
              <mxPoint y="240" />
            </Array>
          </mxGeometry>
        </mxCell>
        <mxCell id="kh96VS2ofaY7KQx8Iza0-35" value="" style="endArrow=classic;html=1;rounded=0;" parent="1" edge="1">
          <mxGeometry width="50" height="50" relative="1" as="geometry">
            <mxPoint x="30" y="-229.41304347826087" as="sourcePoint" />
            <mxPoint x="60" y="-229" as="targetPoint" />
          </mxGeometry>
        </mxCell>
        <mxCell id="kh96VS2ofaY7KQx8Iza0-36" value="" style="endArrow=none;html=1;rounded=0;" parent="1" edge="1">
          <mxGeometry width="50" height="50" relative="1" as="geometry">
            <mxPoint x="20" y="-256" as="sourcePoint" />
            <mxPoint x="20" y="-66" as="targetPoint" />
            <Array as="points">
              <mxPoint x="30" y="-256" />
              <mxPoint x="30" y="-66" />
            </Array>
          </mxGeometry>
        </mxCell>
        <mxCell id="kh96VS2ofaY7KQx8Iza0-37" value="&lt;font style=&quot;font-size: 17px;&quot;&gt;apply FS algorithms&lt;/font&gt;" style="rounded=1;whiteSpace=wrap;html=1;" parent="1" vertex="1">
          <mxGeometry x="62" y="-246.3" width="120" height="38.2" as="geometry" />
        </mxCell>
        <mxCell id="kh96VS2ofaY7KQx8Iza0-38" value="n*q&lt;br&gt;(q: bootstrapped features and&amp;nbsp;&lt;br&gt;interactive effects)" style="rounded=0;whiteSpace=wrap;html=1;" parent="1" vertex="1">
          <mxGeometry x="80" y="-690" width="215" height="290" as="geometry" />
        </mxCell>
        <mxCell id="kh96VS2ofaY7KQx8Iza0-39" value="&lt;font style=&quot;font-size: 18px;&quot;&gt;n*q&lt;br&gt;(q: bootstrapped main and&amp;nbsp;&lt;br&gt;interactive effects)&lt;/font&gt;" style="rounded=0;whiteSpace=wrap;html=1;" parent="1" vertex="1">
          <mxGeometry x="97" y="-668" width="215" height="290" as="geometry" />
        </mxCell>
        <mxCell id="kh96VS2ofaY7KQx8Iza0-40" value="" style="shape=table;startSize=0;container=1;collapsible=0;childLayout=tableLayout;" parent="1" vertex="1">
          <mxGeometry x="637.57" y="-689" width="216" height="230" as="geometry" />
        </mxCell>
        <mxCell id="kh96VS2ofaY7KQx8Iza0-41" value="" style="shape=tableRow;horizontal=0;startSize=0;swimlaneHead=0;swimlaneBody=0;strokeColor=inherit;top=0;left=0;bottom=0;right=0;collapsible=0;dropTarget=0;fillColor=none;points=[[0,0.5],[1,0.5]];portConstraint=eastwest;" parent="kh96VS2ofaY7KQx8Iza0-40" vertex="1">
          <mxGeometry width="216" height="46" as="geometry" />
        </mxCell>
        <mxCell id="kh96VS2ofaY7KQx8Iza0-42" value="" style="shape=partialRectangle;html=1;whiteSpace=wrap;connectable=0;strokeColor=inherit;overflow=hidden;fillColor=none;top=0;left=0;bottom=0;right=0;pointerEvents=1;" parent="kh96VS2ofaY7KQx8Iza0-41" vertex="1">
          <mxGeometry width="216" height="46" as="geometry">
            <mxRectangle width="216" height="46" as="alternateBounds" />
          </mxGeometry>
        </mxCell>
        <mxCell id="kh96VS2ofaY7KQx8Iza0-43" value="" style="shape=tableRow;horizontal=0;startSize=0;swimlaneHead=0;swimlaneBody=0;strokeColor=inherit;top=0;left=0;bottom=0;right=0;collapsible=0;dropTarget=0;fillColor=none;points=[[0,0.5],[1,0.5]];portConstraint=eastwest;" parent="kh96VS2ofaY7KQx8Iza0-40" vertex="1">
          <mxGeometry y="46" width="216" height="46" as="geometry" />
        </mxCell>
        <mxCell id="kh96VS2ofaY7KQx8Iza0-44" value="" style="shape=partialRectangle;html=1;whiteSpace=wrap;connectable=0;strokeColor=inherit;overflow=hidden;fillColor=none;top=0;left=0;bottom=0;right=0;pointerEvents=1;" parent="kh96VS2ofaY7KQx8Iza0-43" vertex="1">
          <mxGeometry width="216" height="46" as="geometry">
            <mxRectangle width="216" height="46" as="alternateBounds" />
          </mxGeometry>
        </mxCell>
        <mxCell id="kh96VS2ofaY7KQx8Iza0-45" value="" style="shape=tableRow;horizontal=0;startSize=0;swimlaneHead=0;swimlaneBody=0;strokeColor=inherit;top=0;left=0;bottom=0;right=0;collapsible=0;dropTarget=0;fillColor=none;points=[[0,0.5],[1,0.5]];portConstraint=eastwest;" parent="kh96VS2ofaY7KQx8Iza0-40" vertex="1">
          <mxGeometry y="92" width="216" height="46" as="geometry" />
        </mxCell>
        <mxCell id="kh96VS2ofaY7KQx8Iza0-46" value="" style="shape=partialRectangle;html=1;whiteSpace=wrap;connectable=0;strokeColor=inherit;overflow=hidden;fillColor=none;top=0;left=0;bottom=0;right=0;pointerEvents=1;" parent="kh96VS2ofaY7KQx8Iza0-45" vertex="1">
          <mxGeometry width="216" height="46" as="geometry">
            <mxRectangle width="216" height="46" as="alternateBounds" />
          </mxGeometry>
        </mxCell>
        <mxCell id="kh96VS2ofaY7KQx8Iza0-47" value="" style="shape=tableRow;horizontal=0;startSize=0;swimlaneHead=0;swimlaneBody=0;strokeColor=inherit;top=0;left=0;bottom=0;right=0;collapsible=0;dropTarget=0;fillColor=none;points=[[0,0.5],[1,0.5]];portConstraint=eastwest;" parent="kh96VS2ofaY7KQx8Iza0-40" vertex="1">
          <mxGeometry y="138" width="216" height="46" as="geometry" />
        </mxCell>
        <mxCell id="kh96VS2ofaY7KQx8Iza0-48" value="" style="shape=partialRectangle;html=1;whiteSpace=wrap;connectable=0;strokeColor=inherit;overflow=hidden;fillColor=none;top=0;left=0;bottom=0;right=0;pointerEvents=1;" parent="kh96VS2ofaY7KQx8Iza0-47" vertex="1">
          <mxGeometry width="216" height="46" as="geometry">
            <mxRectangle width="216" height="46" as="alternateBounds" />
          </mxGeometry>
        </mxCell>
        <mxCell id="kh96VS2ofaY7KQx8Iza0-49" value="" style="shape=tableRow;horizontal=0;startSize=0;swimlaneHead=0;swimlaneBody=0;strokeColor=inherit;top=0;left=0;bottom=0;right=0;collapsible=0;dropTarget=0;fillColor=none;points=[[0,0.5],[1,0.5]];portConstraint=eastwest;" parent="kh96VS2ofaY7KQx8Iza0-40" vertex="1">
          <mxGeometry y="184" width="216" height="46" as="geometry" />
        </mxCell>
        <mxCell id="kh96VS2ofaY7KQx8Iza0-50" value="" style="shape=partialRectangle;html=1;whiteSpace=wrap;connectable=0;strokeColor=inherit;overflow=hidden;fillColor=none;top=0;left=0;bottom=0;right=0;pointerEvents=1;" parent="kh96VS2ofaY7KQx8Iza0-49" vertex="1">
          <mxGeometry width="216" height="46" as="geometry">
            <mxRectangle width="216" height="46" as="alternateBounds" />
          </mxGeometry>
        </mxCell>
        <mxCell id="kh96VS2ofaY7KQx8Iza0-51" value="" style="shape=table;startSize=0;container=1;collapsible=0;childLayout=tableLayout;" parent="1" vertex="1">
          <mxGeometry x="654" y="-675" width="216" height="230" as="geometry" />
        </mxCell>
        <mxCell id="kh96VS2ofaY7KQx8Iza0-52" value="" style="shape=tableRow;horizontal=0;startSize=0;swimlaneHead=0;swimlaneBody=0;strokeColor=inherit;top=0;left=0;bottom=0;right=0;collapsible=0;dropTarget=0;fillColor=none;points=[[0,0.5],[1,0.5]];portConstraint=eastwest;" parent="kh96VS2ofaY7KQx8Iza0-51" vertex="1">
          <mxGeometry width="216" height="46" as="geometry" />
        </mxCell>
        <mxCell id="kh96VS2ofaY7KQx8Iza0-53" value="" style="shape=partialRectangle;html=1;whiteSpace=wrap;connectable=0;strokeColor=inherit;overflow=hidden;fillColor=none;top=0;left=0;bottom=0;right=0;pointerEvents=1;" parent="kh96VS2ofaY7KQx8Iza0-52" vertex="1">
          <mxGeometry width="216" height="46" as="geometry">
            <mxRectangle width="216" height="46" as="alternateBounds" />
          </mxGeometry>
        </mxCell>
        <mxCell id="kh96VS2ofaY7KQx8Iza0-54" value="" style="shape=tableRow;horizontal=0;startSize=0;swimlaneHead=0;swimlaneBody=0;strokeColor=inherit;top=0;left=0;bottom=0;right=0;collapsible=0;dropTarget=0;fillColor=none;points=[[0,0.5],[1,0.5]];portConstraint=eastwest;" parent="kh96VS2ofaY7KQx8Iza0-51" vertex="1">
          <mxGeometry y="46" width="216" height="46" as="geometry" />
        </mxCell>
        <mxCell id="kh96VS2ofaY7KQx8Iza0-55" value="" style="shape=partialRectangle;html=1;whiteSpace=wrap;connectable=0;strokeColor=inherit;overflow=hidden;fillColor=none;top=0;left=0;bottom=0;right=0;pointerEvents=1;" parent="kh96VS2ofaY7KQx8Iza0-54" vertex="1">
          <mxGeometry width="216" height="46" as="geometry">
            <mxRectangle width="216" height="46" as="alternateBounds" />
          </mxGeometry>
        </mxCell>
        <mxCell id="kh96VS2ofaY7KQx8Iza0-56" value="" style="shape=tableRow;horizontal=0;startSize=0;swimlaneHead=0;swimlaneBody=0;strokeColor=inherit;top=0;left=0;bottom=0;right=0;collapsible=0;dropTarget=0;fillColor=none;points=[[0,0.5],[1,0.5]];portConstraint=eastwest;" parent="kh96VS2ofaY7KQx8Iza0-51" vertex="1">
          <mxGeometry y="92" width="216" height="46" as="geometry" />
        </mxCell>
        <mxCell id="kh96VS2ofaY7KQx8Iza0-57" value="" style="shape=partialRectangle;html=1;whiteSpace=wrap;connectable=0;strokeColor=inherit;overflow=hidden;fillColor=none;top=0;left=0;bottom=0;right=0;pointerEvents=1;" parent="kh96VS2ofaY7KQx8Iza0-56" vertex="1">
          <mxGeometry width="216" height="46" as="geometry">
            <mxRectangle width="216" height="46" as="alternateBounds" />
          </mxGeometry>
        </mxCell>
        <mxCell id="kh96VS2ofaY7KQx8Iza0-58" value="" style="shape=tableRow;horizontal=0;startSize=0;swimlaneHead=0;swimlaneBody=0;strokeColor=inherit;top=0;left=0;bottom=0;right=0;collapsible=0;dropTarget=0;fillColor=none;points=[[0,0.5],[1,0.5]];portConstraint=eastwest;" parent="kh96VS2ofaY7KQx8Iza0-51" vertex="1">
          <mxGeometry y="138" width="216" height="46" as="geometry" />
        </mxCell>
        <mxCell id="kh96VS2ofaY7KQx8Iza0-59" value="" style="shape=partialRectangle;html=1;whiteSpace=wrap;connectable=0;strokeColor=inherit;overflow=hidden;fillColor=none;top=0;left=0;bottom=0;right=0;pointerEvents=1;" parent="kh96VS2ofaY7KQx8Iza0-58" vertex="1">
          <mxGeometry width="216" height="46" as="geometry">
            <mxRectangle width="216" height="46" as="alternateBounds" />
          </mxGeometry>
        </mxCell>
        <mxCell id="kh96VS2ofaY7KQx8Iza0-60" value="" style="shape=tableRow;horizontal=0;startSize=0;swimlaneHead=0;swimlaneBody=0;strokeColor=inherit;top=0;left=0;bottom=0;right=0;collapsible=0;dropTarget=0;fillColor=none;points=[[0,0.5],[1,0.5]];portConstraint=eastwest;" parent="kh96VS2ofaY7KQx8Iza0-51" vertex="1">
          <mxGeometry y="184" width="216" height="46" as="geometry" />
        </mxCell>
        <mxCell id="kh96VS2ofaY7KQx8Iza0-61" value="" style="shape=partialRectangle;html=1;whiteSpace=wrap;connectable=0;strokeColor=inherit;overflow=hidden;fillColor=none;top=0;left=0;bottom=0;right=0;pointerEvents=1;" parent="kh96VS2ofaY7KQx8Iza0-60" vertex="1">
          <mxGeometry width="216" height="46" as="geometry">
            <mxRectangle width="216" height="46" as="alternateBounds" />
          </mxGeometry>
        </mxCell>
        <mxCell id="kh96VS2ofaY7KQx8Iza0-62" value="" style="shape=table;startSize=0;container=1;collapsible=0;childLayout=tableLayout;" parent="1" vertex="1">
          <mxGeometry x="-237.20999999999992" y="-284" width="216" height="230" as="geometry" />
        </mxCell>
        <mxCell id="kh96VS2ofaY7KQx8Iza0-63" value="" style="shape=tableRow;horizontal=0;startSize=0;swimlaneHead=0;swimlaneBody=0;strokeColor=inherit;top=0;left=0;bottom=0;right=0;collapsible=0;dropTarget=0;fillColor=none;points=[[0,0.5],[1,0.5]];portConstraint=eastwest;" parent="kh96VS2ofaY7KQx8Iza0-62" vertex="1">
          <mxGeometry width="216" height="46" as="geometry" />
        </mxCell>
        <mxCell id="kh96VS2ofaY7KQx8Iza0-64" value="" style="shape=partialRectangle;html=1;whiteSpace=wrap;connectable=0;strokeColor=inherit;overflow=hidden;fillColor=none;top=0;left=0;bottom=0;right=0;pointerEvents=1;" parent="kh96VS2ofaY7KQx8Iza0-63" vertex="1">
          <mxGeometry width="216" height="46" as="geometry">
            <mxRectangle width="216" height="46" as="alternateBounds" />
          </mxGeometry>
        </mxCell>
        <mxCell id="kh96VS2ofaY7KQx8Iza0-65" value="" style="shape=tableRow;horizontal=0;startSize=0;swimlaneHead=0;swimlaneBody=0;strokeColor=inherit;top=0;left=0;bottom=0;right=0;collapsible=0;dropTarget=0;fillColor=none;points=[[0,0.5],[1,0.5]];portConstraint=eastwest;" parent="kh96VS2ofaY7KQx8Iza0-62" vertex="1">
          <mxGeometry y="46" width="216" height="46" as="geometry" />
        </mxCell>
        <mxCell id="kh96VS2ofaY7KQx8Iza0-66" value="" style="shape=partialRectangle;html=1;whiteSpace=wrap;connectable=0;strokeColor=inherit;overflow=hidden;fillColor=none;top=0;left=0;bottom=0;right=0;pointerEvents=1;" parent="kh96VS2ofaY7KQx8Iza0-65" vertex="1">
          <mxGeometry width="216" height="46" as="geometry">
            <mxRectangle width="216" height="46" as="alternateBounds" />
          </mxGeometry>
        </mxCell>
        <mxCell id="kh96VS2ofaY7KQx8Iza0-67" value="" style="shape=tableRow;horizontal=0;startSize=0;swimlaneHead=0;swimlaneBody=0;strokeColor=inherit;top=0;left=0;bottom=0;right=0;collapsible=0;dropTarget=0;fillColor=none;points=[[0,0.5],[1,0.5]];portConstraint=eastwest;" parent="kh96VS2ofaY7KQx8Iza0-62" vertex="1">
          <mxGeometry y="92" width="216" height="46" as="geometry" />
        </mxCell>
        <mxCell id="kh96VS2ofaY7KQx8Iza0-68" value="" style="shape=partialRectangle;html=1;whiteSpace=wrap;connectable=0;strokeColor=inherit;overflow=hidden;fillColor=none;top=0;left=0;bottom=0;right=0;pointerEvents=1;" parent="kh96VS2ofaY7KQx8Iza0-67" vertex="1">
          <mxGeometry width="216" height="46" as="geometry">
            <mxRectangle width="216" height="46" as="alternateBounds" />
          </mxGeometry>
        </mxCell>
        <mxCell id="kh96VS2ofaY7KQx8Iza0-69" value="" style="shape=tableRow;horizontal=0;startSize=0;swimlaneHead=0;swimlaneBody=0;strokeColor=inherit;top=0;left=0;bottom=0;right=0;collapsible=0;dropTarget=0;fillColor=none;points=[[0,0.5],[1,0.5]];portConstraint=eastwest;" parent="kh96VS2ofaY7KQx8Iza0-62" vertex="1">
          <mxGeometry y="138" width="216" height="46" as="geometry" />
        </mxCell>
        <mxCell id="kh96VS2ofaY7KQx8Iza0-70" value="" style="shape=partialRectangle;html=1;whiteSpace=wrap;connectable=0;strokeColor=inherit;overflow=hidden;fillColor=none;top=0;left=0;bottom=0;right=0;pointerEvents=1;" parent="kh96VS2ofaY7KQx8Iza0-69" vertex="1">
          <mxGeometry width="216" height="46" as="geometry">
            <mxRectangle width="216" height="46" as="alternateBounds" />
          </mxGeometry>
        </mxCell>
        <mxCell id="kh96VS2ofaY7KQx8Iza0-71" value="" style="shape=tableRow;horizontal=0;startSize=0;swimlaneHead=0;swimlaneBody=0;strokeColor=inherit;top=0;left=0;bottom=0;right=0;collapsible=0;dropTarget=0;fillColor=none;points=[[0,0.5],[1,0.5]];portConstraint=eastwest;" parent="kh96VS2ofaY7KQx8Iza0-62" vertex="1">
          <mxGeometry y="184" width="216" height="46" as="geometry" />
        </mxCell>
        <mxCell id="kh96VS2ofaY7KQx8Iza0-72" value="" style="shape=partialRectangle;html=1;whiteSpace=wrap;connectable=0;strokeColor=inherit;overflow=hidden;fillColor=none;top=0;left=0;bottom=0;right=0;pointerEvents=1;" parent="kh96VS2ofaY7KQx8Iza0-71" vertex="1">
          <mxGeometry width="216" height="46" as="geometry">
            <mxRectangle width="216" height="46" as="alternateBounds" />
          </mxGeometry>
        </mxCell>
        <mxCell id="kh96VS2ofaY7KQx8Iza0-73" value="" style="shape=table;startSize=0;container=1;collapsible=0;childLayout=tableLayout;" parent="1" vertex="1">
          <mxGeometry x="-225.20999999999992" y="-269" width="216" height="230" as="geometry" />
        </mxCell>
        <mxCell id="kh96VS2ofaY7KQx8Iza0-74" value="" style="shape=tableRow;horizontal=0;startSize=0;swimlaneHead=0;swimlaneBody=0;strokeColor=inherit;top=0;left=0;bottom=0;right=0;collapsible=0;dropTarget=0;fillColor=none;points=[[0,0.5],[1,0.5]];portConstraint=eastwest;" parent="kh96VS2ofaY7KQx8Iza0-73" vertex="1">
          <mxGeometry width="216" height="46" as="geometry" />
        </mxCell>
        <mxCell id="kh96VS2ofaY7KQx8Iza0-75" value="" style="shape=partialRectangle;html=1;whiteSpace=wrap;connectable=0;strokeColor=inherit;overflow=hidden;fillColor=none;top=0;left=0;bottom=0;right=0;pointerEvents=1;" parent="kh96VS2ofaY7KQx8Iza0-74" vertex="1">
          <mxGeometry width="216" height="46" as="geometry">
            <mxRectangle width="216" height="46" as="alternateBounds" />
          </mxGeometry>
        </mxCell>
        <mxCell id="kh96VS2ofaY7KQx8Iza0-76" value="" style="shape=tableRow;horizontal=0;startSize=0;swimlaneHead=0;swimlaneBody=0;strokeColor=inherit;top=0;left=0;bottom=0;right=0;collapsible=0;dropTarget=0;fillColor=none;points=[[0,0.5],[1,0.5]];portConstraint=eastwest;" parent="kh96VS2ofaY7KQx8Iza0-73" vertex="1">
          <mxGeometry y="46" width="216" height="46" as="geometry" />
        </mxCell>
        <mxCell id="kh96VS2ofaY7KQx8Iza0-77" value="" style="shape=partialRectangle;html=1;whiteSpace=wrap;connectable=0;strokeColor=inherit;overflow=hidden;fillColor=none;top=0;left=0;bottom=0;right=0;pointerEvents=1;" parent="kh96VS2ofaY7KQx8Iza0-76" vertex="1">
          <mxGeometry width="216" height="46" as="geometry">
            <mxRectangle width="216" height="46" as="alternateBounds" />
          </mxGeometry>
        </mxCell>
        <mxCell id="kh96VS2ofaY7KQx8Iza0-78" value="" style="shape=tableRow;horizontal=0;startSize=0;swimlaneHead=0;swimlaneBody=0;strokeColor=inherit;top=0;left=0;bottom=0;right=0;collapsible=0;dropTarget=0;fillColor=none;points=[[0,0.5],[1,0.5]];portConstraint=eastwest;" parent="kh96VS2ofaY7KQx8Iza0-73" vertex="1">
          <mxGeometry y="92" width="216" height="46" as="geometry" />
        </mxCell>
        <mxCell id="kh96VS2ofaY7KQx8Iza0-79" value="" style="shape=partialRectangle;html=1;whiteSpace=wrap;connectable=0;strokeColor=inherit;overflow=hidden;fillColor=none;top=0;left=0;bottom=0;right=0;pointerEvents=1;" parent="kh96VS2ofaY7KQx8Iza0-78" vertex="1">
          <mxGeometry width="216" height="46" as="geometry">
            <mxRectangle width="216" height="46" as="alternateBounds" />
          </mxGeometry>
        </mxCell>
        <mxCell id="kh96VS2ofaY7KQx8Iza0-80" value="" style="shape=tableRow;horizontal=0;startSize=0;swimlaneHead=0;swimlaneBody=0;strokeColor=inherit;top=0;left=0;bottom=0;right=0;collapsible=0;dropTarget=0;fillColor=none;points=[[0,0.5],[1,0.5]];portConstraint=eastwest;" parent="kh96VS2ofaY7KQx8Iza0-73" vertex="1">
          <mxGeometry y="138" width="216" height="46" as="geometry" />
        </mxCell>
        <mxCell id="kh96VS2ofaY7KQx8Iza0-81" value="" style="shape=partialRectangle;html=1;whiteSpace=wrap;connectable=0;strokeColor=inherit;overflow=hidden;fillColor=none;top=0;left=0;bottom=0;right=0;pointerEvents=1;" parent="kh96VS2ofaY7KQx8Iza0-80" vertex="1">
          <mxGeometry width="216" height="46" as="geometry">
            <mxRectangle width="216" height="46" as="alternateBounds" />
          </mxGeometry>
        </mxCell>
        <mxCell id="kh96VS2ofaY7KQx8Iza0-82" value="" style="shape=tableRow;horizontal=0;startSize=0;swimlaneHead=0;swimlaneBody=0;strokeColor=inherit;top=0;left=0;bottom=0;right=0;collapsible=0;dropTarget=0;fillColor=none;points=[[0,0.5],[1,0.5]];portConstraint=eastwest;" parent="kh96VS2ofaY7KQx8Iza0-73" vertex="1">
          <mxGeometry y="184" width="216" height="46" as="geometry" />
        </mxCell>
        <mxCell id="kh96VS2ofaY7KQx8Iza0-83" value="" style="shape=partialRectangle;html=1;whiteSpace=wrap;connectable=0;strokeColor=inherit;overflow=hidden;fillColor=none;top=0;left=0;bottom=0;right=0;pointerEvents=1;" parent="kh96VS2ofaY7KQx8Iza0-82" vertex="1">
          <mxGeometry width="216" height="46" as="geometry">
            <mxRectangle width="216" height="46" as="alternateBounds" />
          </mxGeometry>
        </mxCell>
        <mxCell id="kh96VS2ofaY7KQx8Iza0-84" value="" style="edgeStyle=orthogonalEdgeStyle;rounded=0;orthogonalLoop=1;jettySize=auto;html=1;exitX=0;exitY=0.5;exitDx=0;exitDy=0;" parent="1" source="kh96VS2ofaY7KQx8Iza0-94" target="kh96VS2ofaY7KQx8Iza0-101" edge="1">
          <mxGeometry relative="1" as="geometry" />
        </mxCell>
        <mxCell id="kh96VS2ofaY7KQx8Iza0-85" value="" style="shape=table;startSize=0;container=1;collapsible=0;childLayout=tableLayout;" parent="1" vertex="1">
          <mxGeometry x="-208.77999999999997" y="-255" width="216" height="230" as="geometry" />
        </mxCell>
        <mxCell id="kh96VS2ofaY7KQx8Iza0-86" value="" style="shape=tableRow;horizontal=0;startSize=0;swimlaneHead=0;swimlaneBody=0;strokeColor=inherit;top=0;left=0;bottom=0;right=0;collapsible=0;dropTarget=0;fillColor=none;points=[[0,0.5],[1,0.5]];portConstraint=eastwest;" parent="kh96VS2ofaY7KQx8Iza0-85" vertex="1">
          <mxGeometry width="216" height="46" as="geometry" />
        </mxCell>
        <mxCell id="kh96VS2ofaY7KQx8Iza0-87" value="" style="shape=partialRectangle;html=1;whiteSpace=wrap;connectable=0;strokeColor=inherit;overflow=hidden;fillColor=none;top=0;left=0;bottom=0;right=0;pointerEvents=1;" parent="kh96VS2ofaY7KQx8Iza0-86" vertex="1">
          <mxGeometry width="216" height="46" as="geometry">
            <mxRectangle width="216" height="46" as="alternateBounds" />
          </mxGeometry>
        </mxCell>
        <mxCell id="kh96VS2ofaY7KQx8Iza0-88" value="" style="shape=tableRow;horizontal=0;startSize=0;swimlaneHead=0;swimlaneBody=0;strokeColor=inherit;top=0;left=0;bottom=0;right=0;collapsible=0;dropTarget=0;fillColor=none;points=[[0,0.5],[1,0.5]];portConstraint=eastwest;" parent="kh96VS2ofaY7KQx8Iza0-85" vertex="1">
          <mxGeometry y="46" width="216" height="46" as="geometry" />
        </mxCell>
        <mxCell id="kh96VS2ofaY7KQx8Iza0-89" value="" style="shape=partialRectangle;html=1;whiteSpace=wrap;connectable=0;strokeColor=inherit;overflow=hidden;fillColor=none;top=0;left=0;bottom=0;right=0;pointerEvents=1;" parent="kh96VS2ofaY7KQx8Iza0-88" vertex="1">
          <mxGeometry width="216" height="46" as="geometry">
            <mxRectangle width="216" height="46" as="alternateBounds" />
          </mxGeometry>
        </mxCell>
        <mxCell id="kh96VS2ofaY7KQx8Iza0-90" value="" style="shape=tableRow;horizontal=0;startSize=0;swimlaneHead=0;swimlaneBody=0;strokeColor=inherit;top=0;left=0;bottom=0;right=0;collapsible=0;dropTarget=0;fillColor=none;points=[[0,0.5],[1,0.5]];portConstraint=eastwest;" parent="kh96VS2ofaY7KQx8Iza0-85" vertex="1">
          <mxGeometry y="92" width="216" height="46" as="geometry" />
        </mxCell>
        <mxCell id="kh96VS2ofaY7KQx8Iza0-91" value="" style="shape=partialRectangle;html=1;whiteSpace=wrap;connectable=0;strokeColor=inherit;overflow=hidden;fillColor=none;top=0;left=0;bottom=0;right=0;pointerEvents=1;" parent="kh96VS2ofaY7KQx8Iza0-90" vertex="1">
          <mxGeometry width="216" height="46" as="geometry">
            <mxRectangle width="216" height="46" as="alternateBounds" />
          </mxGeometry>
        </mxCell>
        <mxCell id="kh96VS2ofaY7KQx8Iza0-92" value="" style="shape=tableRow;horizontal=0;startSize=0;swimlaneHead=0;swimlaneBody=0;strokeColor=inherit;top=0;left=0;bottom=0;right=0;collapsible=0;dropTarget=0;fillColor=none;points=[[0,0.5],[1,0.5]];portConstraint=eastwest;" parent="kh96VS2ofaY7KQx8Iza0-85" vertex="1">
          <mxGeometry y="138" width="216" height="46" as="geometry" />
        </mxCell>
        <mxCell id="kh96VS2ofaY7KQx8Iza0-93" value="" style="shape=partialRectangle;html=1;whiteSpace=wrap;connectable=0;strokeColor=inherit;overflow=hidden;fillColor=none;top=0;left=0;bottom=0;right=0;pointerEvents=1;" parent="kh96VS2ofaY7KQx8Iza0-92" vertex="1">
          <mxGeometry width="216" height="46" as="geometry">
            <mxRectangle width="216" height="46" as="alternateBounds" />
          </mxGeometry>
        </mxCell>
        <mxCell id="kh96VS2ofaY7KQx8Iza0-94" value="" style="shape=tableRow;horizontal=0;startSize=0;swimlaneHead=0;swimlaneBody=0;strokeColor=inherit;top=0;left=0;bottom=0;right=0;collapsible=0;dropTarget=0;fillColor=none;points=[[0,0.5],[1,0.5]];portConstraint=eastwest;" parent="kh96VS2ofaY7KQx8Iza0-85" vertex="1">
          <mxGeometry y="184" width="216" height="46" as="geometry" />
        </mxCell>
        <mxCell id="kh96VS2ofaY7KQx8Iza0-95" value="" style="shape=partialRectangle;html=1;whiteSpace=wrap;connectable=0;strokeColor=inherit;overflow=hidden;fillColor=none;top=0;left=0;bottom=0;right=0;pointerEvents=1;" parent="kh96VS2ofaY7KQx8Iza0-94" vertex="1">
          <mxGeometry width="216" height="46" as="geometry">
            <mxRectangle width="216" height="46" as="alternateBounds" />
          </mxGeometry>
        </mxCell>
        <mxCell id="kh96VS2ofaY7KQx8Iza0-96" value="" style="edgeStyle=orthogonalEdgeStyle;rounded=0;orthogonalLoop=1;jettySize=auto;html=1;" parent="1" source="kh96VS2ofaY7KQx8Iza0-98" edge="1">
          <mxGeometry relative="1" as="geometry">
            <mxPoint x="10" y="-48" as="targetPoint" />
            <Array as="points">
              <mxPoint x="310" y="-48" />
            </Array>
          </mxGeometry>
        </mxCell>
        <mxCell id="kh96VS2ofaY7KQx8Iza0-97" value="&lt;font style=&quot;font-size: 16px;&quot;&gt;Fit COX model on 4/5 of the data&lt;br&gt;calculate the Cindex &lt;br&gt;on the remaining 1/5 part&lt;/font&gt;" style="edgeLabel;html=1;align=center;verticalAlign=middle;resizable=0;points=[];" parent="kh96VS2ofaY7KQx8Iza0-96" vertex="1" connectable="0">
          <mxGeometry x="0.3711" y="3" relative="1" as="geometry">
            <mxPoint as="offset" />
          </mxGeometry>
        </mxCell>
        <mxCell id="kh96VS2ofaY7KQx8Iza0-98" value="&lt;font style=&quot;font-size: 17px;&quot;&gt;Feature set 1&lt;/font&gt;" style="whiteSpace=wrap;html=1;rounded=1;" parent="1" vertex="1">
          <mxGeometry x="250.42000000000002" y="-246.3" width="120" height="38.2" as="geometry" />
        </mxCell>
        <mxCell id="kh96VS2ofaY7KQx8Iza0-99" value="" style="edgeStyle=orthogonalEdgeStyle;rounded=0;orthogonalLoop=1;jettySize=auto;html=1;" parent="1" source="kh96VS2ofaY7KQx8Iza0-37" target="kh96VS2ofaY7KQx8Iza0-98" edge="1">
          <mxGeometry relative="1" as="geometry" />
        </mxCell>
        <mxCell id="kh96VS2ofaY7KQx8Iza0-100" value="" style="edgeStyle=orthogonalEdgeStyle;rounded=0;orthogonalLoop=1;jettySize=auto;html=1;" parent="1" source="kh96VS2ofaY7KQx8Iza0-37" target="kh96VS2ofaY7KQx8Iza0-98" edge="1">
          <mxGeometry relative="1" as="geometry" />
        </mxCell>
        <mxCell id="kh96VS2ofaY7KQx8Iza0-101" value="&lt;font style=&quot;font-size: 17px;&quot;&gt;performance 1&lt;/font&gt;" style="whiteSpace=wrap;html=1;startSize=0;rounded=1;rotation=-90;" parent="1" vertex="1">
          <mxGeometry x="-345.21" y="-67" width="120" height="38" as="geometry" />
        </mxCell>
        <mxCell id="kh96VS2ofaY7KQx8Iza0-102" value="" style="shape=table;startSize=0;container=1;collapsible=0;childLayout=tableLayout;" parent="1" vertex="1">
          <mxGeometry x="399.9300000000001" y="-284" width="216" height="230" as="geometry" />
        </mxCell>
        <mxCell id="kh96VS2ofaY7KQx8Iza0-103" value="" style="shape=tableRow;horizontal=0;startSize=0;swimlaneHead=0;swimlaneBody=0;strokeColor=inherit;top=0;left=0;bottom=0;right=0;collapsible=0;dropTarget=0;fillColor=none;points=[[0,0.5],[1,0.5]];portConstraint=eastwest;" parent="kh96VS2ofaY7KQx8Iza0-102" vertex="1">
          <mxGeometry width="216" height="46" as="geometry" />
        </mxCell>
        <mxCell id="kh96VS2ofaY7KQx8Iza0-104" value="" style="shape=partialRectangle;html=1;whiteSpace=wrap;connectable=0;strokeColor=inherit;overflow=hidden;fillColor=none;top=0;left=0;bottom=0;right=0;pointerEvents=1;" parent="kh96VS2ofaY7KQx8Iza0-103" vertex="1">
          <mxGeometry width="216" height="46" as="geometry">
            <mxRectangle width="216" height="46" as="alternateBounds" />
          </mxGeometry>
        </mxCell>
        <mxCell id="kh96VS2ofaY7KQx8Iza0-105" value="" style="shape=tableRow;horizontal=0;startSize=0;swimlaneHead=0;swimlaneBody=0;strokeColor=inherit;top=0;left=0;bottom=0;right=0;collapsible=0;dropTarget=0;fillColor=none;points=[[0,0.5],[1,0.5]];portConstraint=eastwest;" parent="kh96VS2ofaY7KQx8Iza0-102" vertex="1">
          <mxGeometry y="46" width="216" height="46" as="geometry" />
        </mxCell>
        <mxCell id="kh96VS2ofaY7KQx8Iza0-106" value="" style="shape=partialRectangle;html=1;whiteSpace=wrap;connectable=0;strokeColor=inherit;overflow=hidden;fillColor=none;top=0;left=0;bottom=0;right=0;pointerEvents=1;" parent="kh96VS2ofaY7KQx8Iza0-105" vertex="1">
          <mxGeometry width="216" height="46" as="geometry">
            <mxRectangle width="216" height="46" as="alternateBounds" />
          </mxGeometry>
        </mxCell>
        <mxCell id="kh96VS2ofaY7KQx8Iza0-107" value="" style="shape=tableRow;horizontal=0;startSize=0;swimlaneHead=0;swimlaneBody=0;strokeColor=inherit;top=0;left=0;bottom=0;right=0;collapsible=0;dropTarget=0;fillColor=none;points=[[0,0.5],[1,0.5]];portConstraint=eastwest;" parent="kh96VS2ofaY7KQx8Iza0-102" vertex="1">
          <mxGeometry y="92" width="216" height="46" as="geometry" />
        </mxCell>
        <mxCell id="kh96VS2ofaY7KQx8Iza0-108" value="" style="shape=partialRectangle;html=1;whiteSpace=wrap;connectable=0;strokeColor=inherit;overflow=hidden;fillColor=none;top=0;left=0;bottom=0;right=0;pointerEvents=1;" parent="kh96VS2ofaY7KQx8Iza0-107" vertex="1">
          <mxGeometry width="216" height="46" as="geometry">
            <mxRectangle width="216" height="46" as="alternateBounds" />
          </mxGeometry>
        </mxCell>
        <mxCell id="kh96VS2ofaY7KQx8Iza0-109" value="" style="shape=tableRow;horizontal=0;startSize=0;swimlaneHead=0;swimlaneBody=0;strokeColor=inherit;top=0;left=0;bottom=0;right=0;collapsible=0;dropTarget=0;fillColor=none;points=[[0,0.5],[1,0.5]];portConstraint=eastwest;" parent="kh96VS2ofaY7KQx8Iza0-102" vertex="1">
          <mxGeometry y="138" width="216" height="46" as="geometry" />
        </mxCell>
        <mxCell id="kh96VS2ofaY7KQx8Iza0-110" value="" style="shape=partialRectangle;html=1;whiteSpace=wrap;connectable=0;strokeColor=inherit;overflow=hidden;fillColor=none;top=0;left=0;bottom=0;right=0;pointerEvents=1;" parent="kh96VS2ofaY7KQx8Iza0-109" vertex="1">
          <mxGeometry width="216" height="46" as="geometry">
            <mxRectangle width="216" height="46" as="alternateBounds" />
          </mxGeometry>
        </mxCell>
        <mxCell id="kh96VS2ofaY7KQx8Iza0-111" value="" style="shape=tableRow;horizontal=0;startSize=0;swimlaneHead=0;swimlaneBody=0;strokeColor=inherit;top=0;left=0;bottom=0;right=0;collapsible=0;dropTarget=0;fillColor=none;points=[[0,0.5],[1,0.5]];portConstraint=eastwest;" parent="kh96VS2ofaY7KQx8Iza0-102" vertex="1">
          <mxGeometry y="184" width="216" height="46" as="geometry" />
        </mxCell>
        <mxCell id="kh96VS2ofaY7KQx8Iza0-112" value="" style="shape=partialRectangle;html=1;whiteSpace=wrap;connectable=0;strokeColor=inherit;overflow=hidden;fillColor=none;top=0;left=0;bottom=0;right=0;pointerEvents=1;" parent="kh96VS2ofaY7KQx8Iza0-111" vertex="1">
          <mxGeometry width="216" height="46" as="geometry">
            <mxRectangle width="216" height="46" as="alternateBounds" />
          </mxGeometry>
        </mxCell>
        <mxCell id="kh96VS2ofaY7KQx8Iza0-113" value="" style="shape=table;startSize=0;container=1;collapsible=0;childLayout=tableLayout;" parent="1" vertex="1">
          <mxGeometry x="411.9300000000001" y="-269" width="216" height="230" as="geometry" />
        </mxCell>
        <mxCell id="kh96VS2ofaY7KQx8Iza0-114" value="" style="shape=tableRow;horizontal=0;startSize=0;swimlaneHead=0;swimlaneBody=0;strokeColor=inherit;top=0;left=0;bottom=0;right=0;collapsible=0;dropTarget=0;fillColor=none;points=[[0,0.5],[1,0.5]];portConstraint=eastwest;" parent="kh96VS2ofaY7KQx8Iza0-113" vertex="1">
          <mxGeometry width="216" height="46" as="geometry" />
        </mxCell>
        <mxCell id="kh96VS2ofaY7KQx8Iza0-115" value="" style="shape=partialRectangle;html=1;whiteSpace=wrap;connectable=0;strokeColor=inherit;overflow=hidden;fillColor=none;top=0;left=0;bottom=0;right=0;pointerEvents=1;" parent="kh96VS2ofaY7KQx8Iza0-114" vertex="1">
          <mxGeometry width="216" height="46" as="geometry">
            <mxRectangle width="216" height="46" as="alternateBounds" />
          </mxGeometry>
        </mxCell>
        <mxCell id="kh96VS2ofaY7KQx8Iza0-116" value="" style="shape=tableRow;horizontal=0;startSize=0;swimlaneHead=0;swimlaneBody=0;strokeColor=inherit;top=0;left=0;bottom=0;right=0;collapsible=0;dropTarget=0;fillColor=none;points=[[0,0.5],[1,0.5]];portConstraint=eastwest;" parent="kh96VS2ofaY7KQx8Iza0-113" vertex="1">
          <mxGeometry y="46" width="216" height="46" as="geometry" />
        </mxCell>
        <mxCell id="kh96VS2ofaY7KQx8Iza0-117" value="" style="shape=partialRectangle;html=1;whiteSpace=wrap;connectable=0;strokeColor=inherit;overflow=hidden;fillColor=none;top=0;left=0;bottom=0;right=0;pointerEvents=1;" parent="kh96VS2ofaY7KQx8Iza0-116" vertex="1">
          <mxGeometry width="216" height="46" as="geometry">
            <mxRectangle width="216" height="46" as="alternateBounds" />
          </mxGeometry>
        </mxCell>
        <mxCell id="kh96VS2ofaY7KQx8Iza0-118" value="" style="shape=tableRow;horizontal=0;startSize=0;swimlaneHead=0;swimlaneBody=0;strokeColor=inherit;top=0;left=0;bottom=0;right=0;collapsible=0;dropTarget=0;fillColor=none;points=[[0,0.5],[1,0.5]];portConstraint=eastwest;" parent="kh96VS2ofaY7KQx8Iza0-113" vertex="1">
          <mxGeometry y="92" width="216" height="46" as="geometry" />
        </mxCell>
        <mxCell id="kh96VS2ofaY7KQx8Iza0-119" value="" style="shape=partialRectangle;html=1;whiteSpace=wrap;connectable=0;strokeColor=inherit;overflow=hidden;fillColor=none;top=0;left=0;bottom=0;right=0;pointerEvents=1;" parent="kh96VS2ofaY7KQx8Iza0-118" vertex="1">
          <mxGeometry width="216" height="46" as="geometry">
            <mxRectangle width="216" height="46" as="alternateBounds" />
          </mxGeometry>
        </mxCell>
        <mxCell id="kh96VS2ofaY7KQx8Iza0-120" value="" style="shape=tableRow;horizontal=0;startSize=0;swimlaneHead=0;swimlaneBody=0;strokeColor=inherit;top=0;left=0;bottom=0;right=0;collapsible=0;dropTarget=0;fillColor=none;points=[[0,0.5],[1,0.5]];portConstraint=eastwest;" parent="kh96VS2ofaY7KQx8Iza0-113" vertex="1">
          <mxGeometry y="138" width="216" height="46" as="geometry" />
        </mxCell>
        <mxCell id="kh96VS2ofaY7KQx8Iza0-121" value="" style="shape=partialRectangle;html=1;whiteSpace=wrap;connectable=0;strokeColor=inherit;overflow=hidden;fillColor=none;top=0;left=0;bottom=0;right=0;pointerEvents=1;" parent="kh96VS2ofaY7KQx8Iza0-120" vertex="1">
          <mxGeometry width="216" height="46" as="geometry">
            <mxRectangle width="216" height="46" as="alternateBounds" />
          </mxGeometry>
        </mxCell>
        <mxCell id="kh96VS2ofaY7KQx8Iza0-122" value="" style="shape=tableRow;horizontal=0;startSize=0;swimlaneHead=0;swimlaneBody=0;strokeColor=inherit;top=0;left=0;bottom=0;right=0;collapsible=0;dropTarget=0;fillColor=none;points=[[0,0.5],[1,0.5]];portConstraint=eastwest;" parent="kh96VS2ofaY7KQx8Iza0-113" vertex="1">
          <mxGeometry y="184" width="216" height="46" as="geometry" />
        </mxCell>
        <mxCell id="kh96VS2ofaY7KQx8Iza0-123" value="" style="shape=partialRectangle;html=1;whiteSpace=wrap;connectable=0;strokeColor=inherit;overflow=hidden;fillColor=none;top=0;left=0;bottom=0;right=0;pointerEvents=1;" parent="kh96VS2ofaY7KQx8Iza0-122" vertex="1">
          <mxGeometry width="216" height="46" as="geometry">
            <mxRectangle width="216" height="46" as="alternateBounds" />
          </mxGeometry>
        </mxCell>
        <mxCell id="kh96VS2ofaY7KQx8Iza0-124" value="" style="shape=table;startSize=0;container=1;collapsible=0;childLayout=tableLayout;" parent="1" vertex="1">
          <mxGeometry x="428.36000000000007" y="-255" width="216" height="230" as="geometry" />
        </mxCell>
        <mxCell id="kh96VS2ofaY7KQx8Iza0-125" value="" style="shape=tableRow;horizontal=0;startSize=0;swimlaneHead=0;swimlaneBody=0;strokeColor=inherit;top=0;left=0;bottom=0;right=0;collapsible=0;dropTarget=0;fillColor=none;points=[[0,0.5],[1,0.5]];portConstraint=eastwest;" parent="kh96VS2ofaY7KQx8Iza0-124" vertex="1">
          <mxGeometry width="216" height="46" as="geometry" />
        </mxCell>
        <mxCell id="kh96VS2ofaY7KQx8Iza0-126" value="" style="shape=partialRectangle;html=1;whiteSpace=wrap;connectable=0;strokeColor=inherit;overflow=hidden;fillColor=none;top=0;left=0;bottom=0;right=0;pointerEvents=1;" parent="kh96VS2ofaY7KQx8Iza0-125" vertex="1">
          <mxGeometry width="216" height="46" as="geometry">
            <mxRectangle width="216" height="46" as="alternateBounds" />
          </mxGeometry>
        </mxCell>
        <mxCell id="kh96VS2ofaY7KQx8Iza0-127" value="" style="shape=tableRow;horizontal=0;startSize=0;swimlaneHead=0;swimlaneBody=0;strokeColor=inherit;top=0;left=0;bottom=0;right=0;collapsible=0;dropTarget=0;fillColor=none;points=[[0,0.5],[1,0.5]];portConstraint=eastwest;" parent="kh96VS2ofaY7KQx8Iza0-124" vertex="1">
          <mxGeometry y="46" width="216" height="46" as="geometry" />
        </mxCell>
        <mxCell id="kh96VS2ofaY7KQx8Iza0-128" value="" style="shape=partialRectangle;html=1;whiteSpace=wrap;connectable=0;strokeColor=inherit;overflow=hidden;fillColor=none;top=0;left=0;bottom=0;right=0;pointerEvents=1;" parent="kh96VS2ofaY7KQx8Iza0-127" vertex="1">
          <mxGeometry width="216" height="46" as="geometry">
            <mxRectangle width="216" height="46" as="alternateBounds" />
          </mxGeometry>
        </mxCell>
        <mxCell id="kh96VS2ofaY7KQx8Iza0-129" value="" style="shape=tableRow;horizontal=0;startSize=0;swimlaneHead=0;swimlaneBody=0;strokeColor=inherit;top=0;left=0;bottom=0;right=0;collapsible=0;dropTarget=0;fillColor=none;points=[[0,0.5],[1,0.5]];portConstraint=eastwest;" parent="kh96VS2ofaY7KQx8Iza0-124" vertex="1">
          <mxGeometry y="92" width="216" height="46" as="geometry" />
        </mxCell>
        <mxCell id="kh96VS2ofaY7KQx8Iza0-130" value="" style="shape=partialRectangle;html=1;whiteSpace=wrap;connectable=0;strokeColor=inherit;overflow=hidden;fillColor=none;top=0;left=0;bottom=0;right=0;pointerEvents=1;" parent="kh96VS2ofaY7KQx8Iza0-129" vertex="1">
          <mxGeometry width="216" height="46" as="geometry">
            <mxRectangle width="216" height="46" as="alternateBounds" />
          </mxGeometry>
        </mxCell>
        <mxCell id="kh96VS2ofaY7KQx8Iza0-131" value="" style="shape=tableRow;horizontal=0;startSize=0;swimlaneHead=0;swimlaneBody=0;strokeColor=inherit;top=0;left=0;bottom=0;right=0;collapsible=0;dropTarget=0;fillColor=none;points=[[0,0.5],[1,0.5]];portConstraint=eastwest;" parent="kh96VS2ofaY7KQx8Iza0-124" vertex="1">
          <mxGeometry y="138" width="216" height="46" as="geometry" />
        </mxCell>
        <mxCell id="kh96VS2ofaY7KQx8Iza0-132" value="" style="shape=partialRectangle;html=1;whiteSpace=wrap;connectable=0;strokeColor=inherit;overflow=hidden;fillColor=none;top=0;left=0;bottom=0;right=0;pointerEvents=1;" parent="kh96VS2ofaY7KQx8Iza0-131" vertex="1">
          <mxGeometry width="216" height="46" as="geometry">
            <mxRectangle width="216" height="46" as="alternateBounds" />
          </mxGeometry>
        </mxCell>
        <mxCell id="kh96VS2ofaY7KQx8Iza0-133" value="" style="shape=tableRow;horizontal=0;startSize=0;swimlaneHead=0;swimlaneBody=0;strokeColor=inherit;top=0;left=0;bottom=0;right=0;collapsible=0;dropTarget=0;fillColor=none;points=[[0,0.5],[1,0.5]];portConstraint=eastwest;" parent="kh96VS2ofaY7KQx8Iza0-124" vertex="1">
          <mxGeometry y="184" width="216" height="46" as="geometry" />
        </mxCell>
        <mxCell id="kh96VS2ofaY7KQx8Iza0-134" value="" style="shape=partialRectangle;html=1;whiteSpace=wrap;connectable=0;strokeColor=inherit;overflow=hidden;fillColor=none;top=0;left=0;bottom=0;right=0;pointerEvents=1;" parent="kh96VS2ofaY7KQx8Iza0-133" vertex="1">
          <mxGeometry width="216" height="46" as="geometry">
            <mxRectangle width="216" height="46" as="alternateBounds" />
          </mxGeometry>
        </mxCell>
        <mxCell id="kh96VS2ofaY7KQx8Iza0-135" value="" style="group;fontSize=18;" parent="1" vertex="1" connectable="0">
          <mxGeometry x="672.14" y="-258" width="115" height="240" as="geometry" />
        </mxCell>
        <mxCell id="kh96VS2ofaY7KQx8Iza0-136" value="" style="group" parent="kh96VS2ofaY7KQx8Iza0-135" vertex="1" connectable="0">
          <mxGeometry y="200.16597510373444" width="115" height="39.83402489626556" as="geometry" />
        </mxCell>
        <mxCell id="kh96VS2ofaY7KQx8Iza0-137" value="" style="group" parent="kh96VS2ofaY7KQx8Iza0-136" vertex="1" connectable="0">
          <mxGeometry width="115" height="39.83402489626556" as="geometry" />
        </mxCell>
        <mxCell id="kh96VS2ofaY7KQx8Iza0-138" value="&lt;font style=&quot;font-size: 17px;&quot;&gt;performance 1&lt;/font&gt;" style="whiteSpace=wrap;html=1;startSize=0;rounded=1;" parent="kh96VS2ofaY7KQx8Iza0-137" vertex="1">
          <mxGeometry width="115" height="39.83402489626556" as="geometry" />
        </mxCell>
        <mxCell id="kh96VS2ofaY7KQx8Iza0-139" value="&lt;font style=&quot;font-size: 17px;&quot;&gt;performance 2&lt;/font&gt;" style="whiteSpace=wrap;html=1;startSize=0;rounded=1;" parent="kh96VS2ofaY7KQx8Iza0-135" vertex="1">
          <mxGeometry y="150.3734439834025" width="115" height="39.83402489626556" as="geometry" />
        </mxCell>
        <mxCell id="kh96VS2ofaY7KQx8Iza0-140" value="&lt;font style=&quot;font-size: 17px;&quot;&gt;performance 3&lt;/font&gt;" style="whiteSpace=wrap;html=1;startSize=0;rounded=1;" parent="kh96VS2ofaY7KQx8Iza0-135" vertex="1">
          <mxGeometry y="100.58091286307054" width="115" height="39.83402489626556" as="geometry" />
        </mxCell>
        <mxCell id="kh96VS2ofaY7KQx8Iza0-141" value="&lt;font style=&quot;font-size: 17px;&quot;&gt;performance 4&lt;/font&gt;" style="whiteSpace=wrap;html=1;startSize=0;rounded=1;" parent="kh96VS2ofaY7KQx8Iza0-135" vertex="1">
          <mxGeometry y="49.79253112033195" width="115" height="39.83402489626556" as="geometry" />
        </mxCell>
        <mxCell id="kh96VS2ofaY7KQx8Iza0-142" value="&lt;font style=&quot;font-size: 17px;&quot;&gt;performance 5&lt;/font&gt;" style="whiteSpace=wrap;html=1;startSize=0;rounded=1;" parent="kh96VS2ofaY7KQx8Iza0-135" vertex="1">
          <mxGeometry width="115" height="39.83402489626556" as="geometry" />
        </mxCell>
        <mxCell id="kh96VS2ofaY7KQx8Iza0-143" value="" style="endArrow=classic;html=1;rounded=0;exitX=1;exitY=0.5;exitDx=0;exitDy=0;" parent="1" edge="1">
          <mxGeometry width="50" height="50" relative="1" as="geometry">
            <mxPoint x="644.3600000000002" y="-43" as="sourcePoint" />
            <mxPoint x="670.93" y="-43" as="targetPoint" />
          </mxGeometry>
        </mxCell>
        <mxCell id="kh96VS2ofaY7KQx8Iza0-144" value="" style="endArrow=classic;html=1;rounded=0;exitX=1;exitY=0.5;exitDx=0;exitDy=0;" parent="1" edge="1">
          <mxGeometry width="50" height="50" relative="1" as="geometry">
            <mxPoint x="645.3600000000002" y="-90" as="sourcePoint" />
            <mxPoint x="671.93" y="-90" as="targetPoint" />
          </mxGeometry>
        </mxCell>
        <mxCell id="kh96VS2ofaY7KQx8Iza0-145" value="" style="endArrow=classic;html=1;rounded=0;exitX=1;exitY=0.5;exitDx=0;exitDy=0;" parent="1" edge="1">
          <mxGeometry width="50" height="50" relative="1" as="geometry">
            <mxPoint x="645.3600000000002" y="-137" as="sourcePoint" />
            <mxPoint x="671.93" y="-137" as="targetPoint" />
          </mxGeometry>
        </mxCell>
        <mxCell id="kh96VS2ofaY7KQx8Iza0-146" value="" style="endArrow=classic;html=1;rounded=0;exitX=1;exitY=0.5;exitDx=0;exitDy=0;" parent="1" edge="1">
          <mxGeometry width="50" height="50" relative="1" as="geometry">
            <mxPoint x="645.3600000000002" y="-185" as="sourcePoint" />
            <mxPoint x="671.93" y="-185" as="targetPoint" />
          </mxGeometry>
        </mxCell>
        <mxCell id="kh96VS2ofaY7KQx8Iza0-147" value="" style="endArrow=classic;html=1;rounded=0;exitX=1;exitY=0.5;exitDx=0;exitDy=0;" parent="1" edge="1">
          <mxGeometry width="50" height="50" relative="1" as="geometry">
            <mxPoint x="646.3600000000002" y="-234" as="sourcePoint" />
            <mxPoint x="672.93" y="-234" as="targetPoint" />
          </mxGeometry>
        </mxCell>
        <mxCell id="kh96VS2ofaY7KQx8Iza0-148" value="" style="edgeStyle=orthogonalEdgeStyle;rounded=0;orthogonalLoop=1;jettySize=auto;html=1;" parent="1" source="kh96VS2ofaY7KQx8Iza0-150" edge="1">
          <mxGeometry relative="1" as="geometry">
            <mxPoint x="600" y="-410" as="targetPoint" />
            <Array as="points">
              <mxPoint x="910" y="-410" />
            </Array>
          </mxGeometry>
        </mxCell>
        <mxCell id="kh96VS2ofaY7KQx8Iza0-149" value="&lt;font style=&quot;font-size: 16px;&quot;&gt;Fit COX on the whole training set with &lt;br&gt;optimal hyper parameter, &lt;br&gt;calculate test set performance&lt;/font&gt;" style="edgeLabel;html=1;align=center;verticalAlign=middle;resizable=0;points=[];" parent="kh96VS2ofaY7KQx8Iza0-148" vertex="1" connectable="0">
          <mxGeometry x="0.199" y="1" relative="1" as="geometry">
            <mxPoint x="-57" y="10" as="offset" />
          </mxGeometry>
        </mxCell>
        <mxCell id="kh96VS2ofaY7KQx8Iza0-150" value="&lt;font style=&quot;font-size: 17px;&quot;&gt;Validation set performance&lt;/font&gt;" style="rounded=1;whiteSpace=wrap;html=1;" parent="1" vertex="1">
          <mxGeometry x="850" y="-160" width="120" height="60" as="geometry" />
        </mxCell>
      </root>
    </mxGraphModel>
  </diagram>
</mxfile>
